if (_typeface_js && _typeface_js.loadFace) _typeface_js.loadFace({"glyphs":{"S":{"x_min":74,"x_max":1298,"ha":1415,"o":"m 124 0 l 124 153 l 1020 153 q 1069 162 1046 153 q 1108 189 1092 172 q 1135 229 1125 207 q 1145 279 1145 252 q 1108 368 1145 331 q 1019 405 1072 405 l 353 405 q 245 426 296 405 q 156 486 194 448 q 96 575 118 524 q 74 684 74 625 q 95 793 74 742 q 155 882 117 844 q 244 942 193 920 q 353 965 295 965 l 1247 965 l 1247 814 l 353 814 q 265 777 299 814 q 227 688 231 740 q 266 595 231 633 q 353 558 302 558 l 1020 558 q 1127 535 1077 558 q 1216 476 1178 513 q 1275 387 1253 438 q 1298 280 1298 337 q 1276 170 1298 222 q 1217 81 1254 119 q 1129 22 1179 44 q 1020 0 1078 0 l 124 0 "},"/":{"x_min":73.609375,"x_max":787.5625,"ha":825,"o":"m 73 -71 l 638 1039 l 787 1039 l 222 -71 l 73 -71 "},"K":{"x_min":139,"x_max":1335,"ha":1498,"o":"m 1335 814 q 1289 629 1335 714 q 1168 490 1243 544 q 1289 349 1243 435 q 1335 165 1335 264 l 1335 0 l 1182 0 l 1182 165 q 1161 262 1182 216 q 1108 340 1141 307 q 1029 393 1075 374 q 933 413 984 413 l 292 413 l 292 0 l 139 0 l 139 974 l 292 974 l 292 567 l 933 567 q 1029 586 984 567 q 1109 639 1075 605 q 1162 717 1143 672 q 1182 814 1182 762 l 1182 974 l 1335 974 l 1335 814 l 1335 814 "},"7":{"x_min":75.125,"x_max":1328,"ha":1464,"o":"m 75 0 l 1165 723 q 1175 737 1172 726 q 1178 759 1178 748 q 1165 795 1178 779 q 1133 814 1153 811 l 139 814 l 139 964 l 1144 964 q 1278 895 1228 952 q 1328 758 1328 837 q 1307 672 1328 713 q 1248 598 1287 630 l 365 0 l 75 0 "},"d":{"x_min":140,"x_max":1379,"ha":1454,"o":"m 140 962 l 978 962 q 1135 930 1062 962 q 1262 844 1208 898 q 1347 717 1316 789 q 1379 563 1379 645 l 1379 399 q 1347 243 1379 316 q 1260 116 1315 170 q 1133 31 1206 62 q 978 0 1060 0 l 140 0 l 140 962 m 1226 566 q 1206 661 1226 616 q 1153 738 1187 705 q 1073 791 1119 772 q 978 811 1028 811 l 291 811 l 291 153 l 981 153 q 1075 172 1031 153 q 1153 225 1120 191 q 1206 303 1187 258 q 1226 400 1226 348 l 1226 566 "},",":{"x_min":122.234375,"x_max":331.96875,"ha":432,"o":"m 122 -151 l 168 125 l 331 125 l 284 -151 l 122 -151 "},"Y":{"x_min":125,"x_max":1297,"ha":1412,"o":"m 639 0 l 639 289 l 525 289 q 369 320 441 289 q 243 405 297 351 q 156 533 187 461 q 125 689 125 605 l 125 963 l 278 963 l 278 689 q 297 594 278 639 q 350 514 316 548 q 427 461 383 480 q 523 442 472 442 l 896 442 q 992 461 946 442 q 1071 514 1037 480 q 1124 592 1105 547 q 1144 686 1144 636 l 1144 963 l 1297 963 l 1297 689 q 1265 533 1297 605 q 1179 405 1234 461 q 1052 320 1124 351 q 897 289 980 289 l 792 289 l 792 0 l 639 0 "},"E":{"x_min":140,"x_max":1334.75,"ha":1475,"o":"m 365 738 q 312 659 331 704 q 293 563 293 615 l 293 557 l 1334 557 l 1334 404 l 293 404 l 293 397 q 312 302 293 347 q 365 225 331 258 q 445 172 399 191 q 540 153 490 153 l 1334 153 l 1334 0 l 540 0 q 383 31 456 0 q 256 117 311 63 q 171 245 202 172 q 140 399 140 317 l 140 563 q 171 719 140 646 q 258 845 203 791 q 385 930 312 899 q 540 962 458 962 l 1334 962 l 1334 811 l 540 811 q 443 791 487 811 q 365 738 398 772 "},"y":{"x_min":138,"x_max":1284,"ha":1413,"o":"m 1284 961 l 1284 390 q 1253 238 1284 309 q 1169 114 1222 168 q 1045 30 1116 61 q 893 0 973 0 l 207 0 l 207 149 l 893 149 q 985 167 941 149 q 1062 218 1029 186 q 1114 293 1094 250 q 1135 386 1133 337 l 528 386 q 376 417 447 386 q 252 501 306 448 q 168 625 199 554 q 138 777 138 697 l 138 961 l 287 961 l 287 777 q 305 684 287 729 q 357 607 324 640 q 433 554 389 573 q 525 535 477 535 l 1135 535 l 1135 961 l 1284 961 "},"\"":{"x_min":138,"x_max":512,"ha":579,"o":"m 138 675 l 138 963 l 289 963 l 289 675 l 138 675 m 361 675 l 361 963 l 512 963 l 512 675 l 361 675 "},"‹":{"x_min":0,"x_max":0,"ha":0},"˙":{"x_min":139,"x_max":322,"ha":461,"o":"m 139 1253 l 322 1253 l 322 1102 l 139 1102 l 139 1253 "},"„":{"x_min":137.515625,"x_max":600.046875,"ha":708,"o":"m 137 -147 l 223 166 l 359 166 l 275 -147 l 137 -147 m 377 -147 l 463 166 l 600 166 l 515 -147 l 377 -147 "},"g":{"x_min":138,"x_max":1307,"ha":1475,"o":"m 253 113 q 168 239 199 168 q 138 390 138 311 l 138 569 q 169 721 138 649 q 253 845 200 792 q 377 929 305 898 q 529 961 449 961 l 1307 961 l 1307 811 l 529 811 q 435 792 479 811 q 358 740 391 773 q 306 664 325 708 q 287 570 287 620 l 287 390 q 305 298 287 341 q 357 221 324 254 q 433 168 389 187 q 527 149 477 149 l 1157 149 l 1157 400 l 581 400 l 581 549 l 1307 549 l 1307 0 l 529 0 q 377 30 449 0 q 253 113 305 61 "},"–":{"x_min":141.671875,"x_max":1211.203125,"ha":1333,"o":"m 141 547 l 1211 547 l 1211 419 l 141 419 l 141 547 "},"e":{"x_min":139,"x_max":1360,"ha":1511,"o":"m 139 670 q 164 783 139 730 q 232 876 190 837 q 332 938 275 915 q 451 961 389 961 l 1053 961 q 1169 937 1114 961 q 1267 872 1225 913 q 1335 777 1310 831 q 1360 662 1360 723 q 1335 545 1360 600 q 1266 450 1310 491 q 1166 386 1223 409 q 1047 364 1110 364 l 288 364 l 288 251 q 348 176 300 204 q 451 149 396 149 l 1333 149 l 1333 0 l 444 0 q 337 16 390 0 q 239 65 283 33 q 168 143 196 97 q 139 247 140 188 l 139 670 m 451 811 q 398 799 426 811 q 344 770 369 788 q 303 724 319 751 q 288 666 288 697 l 288 514 l 1052 514 q 1112 525 1083 514 q 1163 557 1141 537 q 1197 603 1184 576 q 1211 662 1211 630 q 1197 721 1211 694 q 1161 768 1184 748 q 1108 799 1138 788 q 1047 811 1079 811 l 451 811 "},"J":{"x_min":139,"x_max":1311,"ha":1412,"o":"m 257 116 q 170 244 201 172 q 139 400 139 316 l 139 503 l 292 503 l 292 400 q 311 305 292 350 q 364 225 330 259 q 441 172 397 191 q 537 153 486 153 l 910 153 q 1006 172 960 153 q 1085 225 1051 191 q 1138 303 1119 258 q 1158 397 1158 347 l 1158 963 l 1311 963 l 1311 400 q 1279 244 1311 316 q 1192 116 1248 172 q 1066 31 1138 62 q 911 0 994 0 l 538 0 q 383 31 455 0 q 257 116 311 62 "},"|":{"x_min":217,"x_max":352,"ha":590,"o":"m 217 1015 l 352 1015 l 352 -64 l 217 -64 l 217 1015 "},"˘":{"x_min":214,"x_max":810,"ha":953,"o":"m 342 1178 q 359 1133 342 1151 q 403 1115 376 1115 l 619 1115 q 663 1133 644 1115 q 682 1178 682 1151 l 682 1220 l 810 1220 l 810 1178 q 795 1105 810 1139 q 754 1045 780 1071 q 693 1004 728 1019 q 619 989 658 989 l 402 989 q 269 1043 326 989 q 228 1104 243 1069 q 214 1178 214 1139 l 214 1220 l 342 1220 l 342 1178 "},"^":{"x_min":55.5625,"x_max":850.0625,"ha":906,"o":"m 505 972 l 850 332 l 755 332 l 452 902 l 150 332 l 55 332 l 400 972 l 505 972 "},"q":{"x_min":136,"x_max":1581,"ha":1734,"o":"m 779 -193 l 779 0 l 526 0 q 374 30 445 0 q 250 114 304 61 q 166 238 197 168 q 136 390 136 309 l 136 568 q 166 720 136 648 q 250 844 197 791 q 374 928 304 897 q 526 960 445 960 l 1187 960 q 1340 928 1268 960 q 1465 844 1412 897 q 1549 720 1518 791 q 1581 568 1581 648 l 1581 390 q 1549 238 1581 309 q 1465 114 1518 168 q 1340 30 1412 61 q 1187 0 1268 0 l 928 0 l 928 -193 l 779 -193 m 285 390 q 304 296 285 340 q 356 220 323 253 q 432 168 389 187 q 526 149 476 149 l 779 149 l 779 325 l 928 325 l 928 149 l 1187 149 q 1282 168 1237 149 q 1360 220 1326 187 q 1412 296 1393 253 q 1431 390 1431 340 l 1431 568 q 1412 662 1431 618 q 1360 738 1393 705 q 1282 790 1326 771 q 1187 810 1237 810 l 526 810 q 432 790 476 810 q 356 738 389 771 q 304 662 323 705 q 285 568 285 618 l 285 390 "},"b":{"x_min":136,"x_max":1382,"ha":1535,"o":"m 1287 495 q 1356 401 1331 455 q 1382 287 1382 348 q 1357 174 1382 227 q 1291 83 1333 122 q 1195 22 1250 44 q 1080 0 1140 0 l 136 0 l 136 962 l 1076 962 q 1161 951 1119 962 q 1241 921 1204 941 q 1307 871 1277 900 q 1355 802 1337 841 q 1382 692 1382 749 q 1357 584 1382 637 q 1287 495 1333 531 m 287 575 l 1082 575 q 1135 583 1108 575 q 1183 606 1161 591 q 1217 643 1204 622 q 1231 693 1231 665 q 1217 742 1231 720 q 1181 779 1203 763 q 1132 802 1160 794 q 1076 811 1104 811 l 287 811 l 287 575 m 1219 236 q 1231 286 1231 258 q 1219 337 1231 312 q 1186 381 1207 362 q 1139 410 1165 399 q 1083 422 1112 422 l 287 422 l 287 153 l 1083 153 q 1164 175 1126 153 q 1219 236 1203 198 "},"D":{"x_min":140,"x_max":1379,"ha":1483,"o":"m 140 962 l 978 962 q 1135 930 1062 962 q 1262 844 1208 898 q 1347 717 1316 789 q 1379 563 1379 645 l 1379 399 q 1347 243 1379 316 q 1260 116 1315 170 q 1133 31 1206 62 q 978 0 1060 0 l 140 0 l 140 962 m 1226 566 q 1206 661 1226 616 q 1153 738 1187 705 q 1073 791 1119 772 q 978 811 1028 811 l 291 811 l 291 153 l 981 153 q 1075 172 1031 153 q 1153 225 1120 191 q 1206 303 1187 258 q 1226 400 1226 348 l 1226 566 "},"z":{"x_min":138.90625,"x_max":1434.84375,"ha":1571,"o":"m 138 0 l 138 138 l 1133 813 l 141 813 l 141 963 l 1434 963 l 1434 831 l 426 149 l 1416 149 l 1416 0 l 138 0 "},"ˆ":{"x_min":120.84375,"x_max":1001.46875,"ha":1089,"o":"m 561 1222 l 166 1035 l 120 1130 l 561 1339 l 1001 1130 l 955 1035 l 561 1222 "},"w":{"x_min":143,"x_max":1921,"ha":2095,"o":"m 533 0 q 381 31 452 0 q 257 115 311 62 q 173 239 204 168 q 143 391 143 311 l 143 961 l 292 961 l 292 391 q 310 298 292 343 q 362 221 329 254 q 438 168 394 187 q 530 149 482 149 l 999 149 l 999 961 l 1149 961 l 1149 149 l 1772 149 l 1772 961 l 1921 961 l 1921 0 l 533 0 l 533 0 "},"$":{"x_min":143,"x_max":1253,"ha":1407,"o":"m 980 547 q 1086 525 1035 547 q 1172 467 1136 503 q 1231 380 1209 430 q 1253 273 1253 330 q 1231 166 1253 216 q 1172 79 1209 116 q 1086 21 1136 43 q 980 0 1037 0 l 926 0 l 926 -110 l 776 -110 l 776 0 l 668 0 l 668 -110 l 518 -110 l 518 0 l 143 0 l 143 149 l 518 149 l 518 397 l 418 397 q 313 418 362 397 q 226 476 263 440 q 167 563 189 513 q 146 669 146 612 q 167 777 146 727 q 225 864 189 827 q 311 922 262 901 q 418 943 361 943 l 518 943 l 518 1050 l 668 1050 l 668 943 l 776 943 l 776 1050 l 926 1050 l 926 943 l 1243 943 l 1243 793 l 926 793 l 926 547 l 980 547 m 668 793 l 668 547 l 776 547 l 776 793 l 668 793 m 518 547 l 518 793 l 418 793 q 332 758 365 793 q 295 673 299 723 q 333 583 299 619 q 418 547 368 547 l 518 547 m 776 149 l 776 397 l 668 397 l 668 149 l 776 149 m 980 149 q 1067 185 1031 149 q 1104 272 1104 221 q 1068 360 1104 324 q 980 397 1033 397 l 926 397 l 926 149 l 980 149 "},"™":{"x_min":0,"x_max":0,"ha":2991},"\\":{"x_min":69.453125,"x_max":733.390625,"ha":803,"o":"m 733 -69 l 641 -69 l 69 1042 l 161 1042 l 733 -69 "},"’":{"x_min":133.34375,"x_max":387.53125,"ha":454,"o":"m 133 614 l 225 952 l 387 952 l 294 614 l 133 614 "},"~":{"x_min":138,"x_max":936,"ha":979,"o":"m 780 615 q 716 624 750 615 q 649 650 681 634 q 500 726 577 687 q 348 803 422 766 q 299 818 318 818 q 292 814 296 818 q 288 788 288 809 l 288 637 l 138 637 l 138 780 q 182 913 138 866 q 294 958 224 958 q 357 948 324 958 q 424 923 391 938 l 725 770 q 774 752 755 752 q 782 758 779 752 q 786 783 786 763 l 786 936 l 936 936 l 936 791 q 891 659 936 706 q 780 615 851 615 "},"-":{"x_min":94.453125,"x_max":808.390625,"ha":938,"o":"m 94 547 l 808 547 l 808 419 l 94 419 l 94 547 "},"Q":{"x_min":131,"x_max":1689.234375,"ha":1734,"o":"m 529 0 q 374 31 447 0 q 247 116 301 62 q 162 243 193 170 q 131 399 131 316 l 131 566 q 162 721 131 648 q 247 848 193 794 q 374 933 301 902 q 529 965 447 965 l 1206 965 q 1362 933 1289 965 q 1489 848 1435 902 q 1574 721 1543 794 q 1606 566 1606 648 l 1606 400 q 1583 266 1606 327 q 1521 153 1561 204 l 1689 153 l 1689 0 l 529 0 m 1215 153 q 1308 173 1265 153 q 1383 227 1351 193 q 1434 305 1415 261 q 1453 400 1453 350 l 1453 566 q 1433 661 1453 616 q 1380 741 1414 707 q 1302 794 1347 775 q 1205 814 1257 814 l 529 814 q 434 794 479 814 q 356 741 389 775 q 303 661 322 707 q 284 566 284 616 l 284 400 q 303 303 284 348 q 356 225 322 258 q 434 172 389 191 q 529 153 479 153 l 1215 153 "},"M":{"x_min":135,"x_max":1584,"ha":1690,"o":"m 1433 1 l 1433 766 q 1414 799 1433 787 q 1383 811 1396 811 l 1370 811 q 1340 799 1356 811 q 1316 770 1323 788 l 1277 688 q 1240 608 1262 656 q 1184 491 1217 561 q 1106 327 1151 422 q 1001 108 1061 233 q 979 69 991 88 q 950 34 966 50 q 915 9 934 19 q 875 0 895 0 l 852 0 q 772 28 800 2 q 718 106 744 54 l 401 770 q 388 794 393 787 q 372 808 383 801 q 353 811 364 811 l 337 811 q 304 796 321 811 q 288 766 288 781 l 288 1 l 135 1 l 135 771 q 150 841 135 807 q 193 900 166 874 q 256 943 221 927 q 330 962 291 959 l 352 964 q 425 951 393 964 q 459 934 441 945 q 491 907 476 922 q 518 875 506 891 q 534 847 530 859 l 543 829 q 699 498 622 663 q 856 168 777 333 l 859 162 l 1178 832 q 1216 892 1192 861 q 1274 941 1241 923 q 1318 957 1293 951 q 1366 964 1342 964 l 1386 962 q 1457 944 1423 962 q 1520 900 1492 927 q 1565 839 1547 873 q 1584 774 1582 806 l 1584 1 l 1433 1 "},"C":{"x_min":96,"x_max":1290.75,"ha":1436,"o":"m 214 116 q 127 244 158 172 q 96 399 96 316 l 96 563 q 127 718 96 645 q 214 845 159 791 q 341 930 268 899 q 497 962 414 962 l 1290 962 l 1290 811 l 497 811 q 401 791 446 811 q 322 738 355 772 q 269 658 289 704 q 249 563 249 613 l 249 400 q 268 305 249 350 q 321 225 287 259 q 399 172 354 191 q 494 153 443 153 l 1290 153 l 1290 0 l 497 0 q 341 31 414 0 q 214 116 268 62 "},"[":{"x_min":115,"x_max":430,"ha":571,"o":"m 115 -96 l 115 1039 l 418 1039 l 418 890 l 264 890 l 264 53 l 430 53 l 430 -96 l 115 -96 "},"L":{"x_min":139,"x_max":1332.359375,"ha":1435,"o":"m 292 963 l 292 401 q 311 304 292 348 q 364 226 330 259 q 442 173 397 193 q 539 153 486 153 l 1332 153 l 1332 0 l 539 0 q 383 31 455 0 q 255 118 311 62 q 170 245 201 172 q 139 401 139 318 l 139 963 l 292 963 "},";":{"x_min":89.671875,"x_max":323,"ha":447,"o":"m 154 373 l 154 540 l 323 540 l 323 373 l 154 373 m 89 -147 l 174 166 l 311 166 l 225 -147 l 89 -147 "},"!":{"x_min":190,"x_max":339,"ha":540,"o":"m 339 963 l 339 269 l 190 269 l 190 963 l 339 963 m 339 211 l 339 0 l 190 0 l 190 211 l 339 211 "}," ":{"x_min":0,"x_max":0,"ha":521},"{":{"x_min":0,"x_max":0,"ha":870},"X":{"x_min":125,"x_max":1298,"ha":1413,"o":"m 1179 444 q 1266 316 1235 388 q 1298 161 1298 244 l 1298 0 l 1145 0 l 1145 160 q 1125 256 1145 210 q 1072 335 1106 301 q 994 388 1039 369 q 899 408 950 408 l 523 408 q 429 388 473 408 q 350 335 384 369 q 297 258 316 302 q 278 163 278 213 l 278 0 l 125 0 l 125 161 q 156 316 125 244 q 243 444 187 388 q 266 465 254 455 q 289 484 277 476 q 241 524 261 505 l 243 524 q 156 652 187 580 q 125 808 125 725 l 125 963 l 278 963 l 278 808 q 297 713 278 758 q 350 634 316 668 q 428 580 383 599 q 523 561 472 561 l 908 561 q 1000 581 957 561 q 1075 634 1043 601 q 1126 712 1107 668 q 1145 805 1145 757 l 1145 963 l 1298 963 l 1298 808 q 1266 652 1298 725 q 1179 524 1235 580 q 1156 503 1167 513 q 1132 483 1145 492 q 1158 464 1147 473 q 1179 445 1168 455 l 1179 444 "},"P":{"x_min":143,"x_max":1412,"ha":1544,"o":"m 294 0 l 143 0 l 143 961 l 1106 961 q 1222 937 1167 961 q 1320 872 1278 913 q 1386 777 1361 831 q 1412 662 1412 723 q 1386 545 1412 600 q 1317 450 1360 491 q 1217 386 1274 409 q 1099 364 1160 364 l 294 364 l 294 0 m 1101 513 q 1162 524 1133 513 q 1212 556 1190 536 q 1247 603 1233 576 q 1263 662 1261 630 q 1247 720 1261 693 q 1211 767 1233 747 q 1160 799 1189 787 q 1098 811 1130 811 l 294 811 l 294 513 l 1101 513 "},"%":{"x_min":122,"x_max":1504,"ha":1619,"o":"m 415 -14 l 1035 963 l 1206 963 l 585 -14 l 415 -14 m 1065 0 q 981 16 1020 0 q 912 62 941 33 q 864 132 881 92 q 847 216 847 172 l 847 235 q 864 321 847 281 q 911 390 881 360 q 981 437 941 420 q 1065 455 1020 455 l 1287 455 q 1371 437 1331 455 q 1440 390 1410 420 q 1486 321 1469 360 q 1504 235 1504 281 l 1504 216 q 1487 132 1504 172 q 1441 63 1470 92 q 1372 17 1412 34 q 1287 0 1333 0 l 1065 0 m 1010 291 q 993 266 999 280 q 987 236 987 252 l 987 216 q 1009 162 987 184 q 1064 140 1032 140 l 1287 140 q 1341 162 1319 140 q 1364 216 1364 184 l 1364 235 q 1341 292 1364 269 q 1287 315 1319 315 l 1065 315 q 1009 291 1033 315 l 1010 291 m 338 494 q 185 556 248 494 q 139 626 156 587 q 122 711 122 666 l 122 730 q 139 816 122 776 q 185 885 156 855 q 254 931 215 914 q 338 949 294 949 l 562 949 q 646 931 606 949 q 715 885 685 914 q 761 816 744 855 q 779 730 779 776 l 779 711 q 762 626 779 666 q 716 558 745 587 q 647 511 687 528 q 562 494 608 494 l 338 494 m 285 786 q 262 730 262 765 l 262 711 q 284 656 262 679 q 338 633 306 633 l 562 633 q 616 656 594 633 q 639 711 639 679 l 639 730 q 616 785 639 762 q 562 809 594 809 l 338 809 q 284 786 306 809 l 285 786 "},"#":{"x_min":130.15625,"x_max":873.859375,"ha":1049,"o":"m 873 385 l 703 385 l 703 207 l 597 207 l 597 385 l 407 385 l 407 207 l 301 207 l 301 385 l 130 385 l 130 491 l 301 491 l 301 679 l 130 679 l 130 785 l 301 785 l 301 963 l 407 963 l 407 785 l 597 785 l 597 963 l 703 963 l 703 785 l 873 785 l 873 679 l 703 679 l 703 491 l 873 491 l 873 385 m 597 491 l 597 679 l 407 679 l 407 491 l 597 491 "},"_":{"x_min":0,"x_max":1389,"ha":1389,"o":"m 0 -97 l 1389 -97 l 1389 -180 l 0 -180 l 0 -97 "},"+":{"x_min":137.421875,"x_max":830.1875,"ha":992,"o":"m 830 407 l 551 407 l 551 128 l 418 128 l 418 407 l 137 407 l 137 540 l 418 540 l 418 821 l 551 821 l 551 540 l 830 540 l 830 407 "},"‚":{"x_min":90.28125,"x_max":311.140625,"ha":389,"o":"m 90 -147 l 175 166 l 311 166 l 226 -147 l 90 -147 "},")":{"x_min":119.3125,"x_max":485,"ha":665,"o":"m 119 -79 l 119 70 l 284 70 q 313 89 298 71 q 329 119 323 100 q 336 160 336 138 l 336 784 q 332 815 336 801 q 322 841 329 829 q 284 875 306 870 l 119 875 l 119 1024 l 284 1024 q 368 1003 329 1024 q 433 946 407 982 q 471 873 457 914 q 485 785 485 832 l 485 159 q 455 33 485 89 q 387 -46 432 -13 q 284 -79 342 -79 l 119 -79 "},"'":{"x_min":126,"x_max":261,"ha":358,"o":"m 126 614 l 126 952 l 261 952 l 261 614 l 126 614 "},"}":{"x_min":0,"x_max":0,"ha":870},"‰":{"x_min":99,"x_max":2184,"ha":2308,"o":"m 393 -15 l 1028 983 l 1146 983 l 511 -15 l 393 -15 m 1254 0 l 1013 0 q 933 15 970 0 q 868 59 895 31 q 823 125 840 87 q 807 206 807 163 l 807 227 q 822 308 807 270 q 867 374 838 345 q 933 419 895 402 q 1013 436 970 436 l 1254 436 q 1334 419 1297 436 q 1399 374 1372 402 q 1444 308 1427 347 q 1461 227 1461 270 l 1461 206 q 1445 127 1461 165 q 1400 61 1429 88 q 1334 16 1372 33 q 1254 0 1297 0 m 934 306 q 911 271 919 291 q 903 227 903 251 l 903 206 q 935 128 903 161 q 1013 96 968 96 l 1254 96 q 1332 128 1299 96 q 1365 206 1365 161 l 1365 227 q 1332 307 1365 274 q 1254 340 1299 340 l 1013 340 q 934 306 968 340 m 546 533 l 305 533 q 225 549 262 533 q 160 592 187 565 q 115 658 132 620 q 99 740 99 697 l 99 761 q 114 841 99 804 q 159 908 130 879 q 225 953 187 936 q 305 970 262 970 l 546 970 q 626 953 589 970 q 691 908 664 936 q 736 842 719 880 q 753 761 753 804 l 753 740 q 737 660 753 698 q 692 594 721 622 q 626 549 664 566 q 546 533 589 533 m 226 840 q 203 805 211 825 q 195 761 195 784 l 195 740 q 227 661 195 694 q 305 629 260 629 l 546 629 q 624 661 591 629 q 657 740 657 694 l 657 761 q 624 841 657 808 q 546 874 591 874 l 305 874 q 226 840 260 874 m 1976 0 l 1736 0 q 1655 15 1693 0 q 1590 59 1618 31 q 1545 125 1562 87 q 1529 206 1529 163 l 1529 227 q 1544 308 1529 270 q 1589 374 1560 345 q 1655 419 1618 402 q 1736 436 1693 436 l 1976 436 q 2057 419 2019 436 q 2122 374 2095 402 q 2167 308 2150 347 q 2184 227 2184 270 l 2184 206 q 2168 127 2184 165 q 2123 61 2152 88 q 2057 16 2095 33 q 1976 0 2019 0 m 1656 306 q 1633 271 1641 291 q 1625 227 1625 251 l 1625 206 q 1657 128 1625 161 q 1736 96 1690 96 l 1976 96 q 2055 128 2022 96 q 2088 206 2088 161 l 2088 227 q 2055 307 2088 274 q 1976 340 2022 340 l 1736 340 q 1656 306 1690 340 "},"˛":{"x_min":138.90625,"x_max":565.328125,"ha":663,"o":"m 294 -278 q 237 -267 265 -278 q 187 -239 209 -257 q 152 -195 165 -221 q 138 -139 138 -169 l 138 -136 q 161 -48 138 -89 q 219 20 183 -7 l 250 48 l 402 48 l 287 -61 q 259 -94 272 -76 q 245 -129 245 -111 q 250 -146 245 -137 q 269 -164 258 -161 q 298 -171 280 -168 l 565 -171 l 565 -278 l 294 -278 "},"a":{"x_min":136,"x_max":1332,"ha":1504,"o":"m 447 0 q 358 14 401 0 q 277 51 315 28 q 211 108 240 75 q 163 180 181 142 q 143 237 151 208 q 136 297 136 266 q 160 414 136 359 q 228 509 185 468 q 326 573 270 550 q 442 596 381 596 l 1183 596 l 1183 630 q 1169 693 1183 663 q 1133 745 1155 723 q 1080 780 1110 768 q 1017 793 1051 793 l 345 793 l 345 943 l 1017 943 q 1139 918 1083 943 q 1240 852 1196 894 q 1307 752 1283 809 q 1332 630 1332 695 l 1332 -1 l 447 0 m 356 419 q 304 367 323 398 q 286 297 286 336 q 299 238 286 265 q 333 192 312 211 q 382 160 354 172 q 442 149 410 149 l 1183 149 l 1183 446 l 447 446 q 356 419 395 446 "},"T":{"x_min":125.515625,"x_max":1315.5,"ha":1432,"o":"m 1315 811 l 796 811 l 796 0 l 645 0 l 645 811 l 125 811 l 125 962 l 1315 962 l 1315 811 "},"—":{"x_min":150.015625,"x_max":1575.125,"ha":1707,"o":"m 150 547 l 1575 547 l 1575 419 l 150 419 l 150 547 "},"=":{"x_min":122.234375,"x_max":822.28125,"ha":938,"o":"m 122 407 l 822 407 l 822 265 l 122 265 l 122 407 m 122 664 l 822 664 l 822 522 l 122 522 l 122 664 "},"N":{"x_min":140,"x_max":1388,"ha":1520,"o":"m 1090 10 q 1054 31 1071 19 q 1019 65 1037 44 q 865 244 945 149 q 704 434 785 338 q 543 624 623 530 q 391 804 463 718 q 349 821 374 821 q 309 809 327 821 q 291 775 292 798 l 291 0 l 140 0 l 140 786 l 141 790 q 162 868 143 833 q 211 926 181 902 q 277 962 241 950 q 352 975 314 975 q 437 957 396 975 q 509 899 478 940 q 822 531 666 715 q 1136 162 977 348 q 1155 149 1143 155 q 1178 144 1166 144 q 1214 156 1197 144 q 1235 189 1230 169 l 1235 965 l 1388 965 l 1388 178 q 1364 101 1383 135 q 1316 41 1344 66 q 1251 3 1287 16 q 1176 -10 1215 -10 q 1132 -5 1155 -10 q 1090 10 1109 0 "},"˚":{"x_min":129,"x_max":698,"ha":756,"o":"m 317 994 q 184 1049 240 994 q 143 1110 158 1076 q 129 1183 129 1144 l 129 1201 q 143 1275 129 1240 q 183 1335 158 1309 q 244 1376 209 1361 q 317 1392 278 1392 l 507 1392 q 581 1376 546 1392 q 641 1335 616 1361 q 682 1275 667 1309 q 698 1201 698 1240 l 698 1183 q 683 1110 698 1144 q 642 1050 668 1076 q 581 1009 616 1024 q 507 994 546 994 l 317 994 m 275 1245 q 257 1201 257 1227 l 257 1183 q 274 1139 257 1156 q 318 1122 291 1122 l 508 1122 q 553 1139 534 1122 q 572 1183 572 1156 l 572 1201 q 553 1245 572 1227 q 508 1264 534 1264 l 318 1264 q 293 1258 304 1264 q 275 1245 281 1252 "},"⁄":{"x_min":41.671875,"x_max":1044.53125,"ha":1086,"o":"m 940 972 l 1044 972 l 145 0 l 41 0 l 940 972 "},"2":{"x_min":147,"x_max":1458,"ha":1576,"o":"m 147 0 l 147 257 q 164 341 147 302 q 211 409 181 379 q 280 458 241 439 q 362 485 319 478 q 512 509 431 496 q 677 535 593 522 q 846 561 762 548 q 1007 585 930 573 q 1150 606 1085 597 q 1262 622 1215 615 q 1299 639 1282 625 q 1299 642 1299 639 q 1301 656 1300 644 q 1302 692 1302 668 q 1302 760 1302 715 q 1273 797 1299 781 q 1214 813 1247 813 l 380 813 q 352 810 369 813 q 321 797 335 808 q 304 776 310 788 q 299 742 299 764 l 299 603 l 150 603 l 150 757 q 168 840 150 803 q 218 905 187 878 q 289 947 250 932 q 369 963 329 963 l 1214 963 q 1299 950 1257 963 q 1376 913 1342 938 q 1431 854 1410 889 q 1452 774 1452 819 l 1452 633 q 1434 562 1452 592 q 1389 514 1417 533 q 1327 483 1361 494 q 1258 468 1293 472 q 1184 458 1222 464 q 1106 446 1146 453 q 920 419 1017 433 q 728 390 823 404 q 546 363 633 376 q 391 337 459 350 q 326 309 357 330 q 296 260 296 287 l 296 149 l 1458 149 l 1458 0 l 147 0 "},"j":{"x_min":139,"x_max":1285,"ha":1418,"o":"m 298 961 l 1285 961 l 1285 390 q 1254 239 1285 311 q 1169 113 1223 168 q 1046 30 1116 61 q 894 0 975 0 l 530 0 q 377 30 448 0 q 254 114 307 61 q 169 239 200 168 q 139 390 139 311 l 139 493 l 288 493 l 288 390 q 306 298 288 342 q 358 221 325 254 q 434 168 390 187 q 528 149 478 149 l 894 149 q 986 167 943 149 q 1063 219 1030 186 q 1116 295 1097 251 q 1136 389 1136 339 l 1136 811 l 298 811 l 298 961 "},"Z":{"x_min":111,"x_max":1333,"ha":1457,"o":"m 306 0 q 221 19 258 0 q 160 69 184 38 q 123 138 136 99 q 111 213 111 176 q 130 301 111 266 q 173 356 149 336 q 236 394 199 381 q 455 470 341 430 q 684 550 569 509 q 914 631 800 591 q 1134 706 1029 670 q 1145 712 1138 711 l 1144 711 q 1168 724 1154 715 q 1182 756 1182 734 q 1180 769 1182 761 q 1175 787 1179 777 q 1161 804 1170 797 q 1136 811 1152 811 l 119 811 l 119 962 l 1144 962 q 1245 932 1207 962 q 1302 866 1283 903 q 1327 797 1321 830 q 1333 756 1333 764 q 1317 671 1333 705 q 1281 617 1301 637 q 1231 580 1259 592 q 760 415 999 501 q 288 251 520 330 l 290 252 q 267 232 273 244 q 261 208 261 221 q 274 171 261 189 q 309 153 287 154 l 1325 153 l 1325 0 l 306 0 "},"u":{"x_min":140,"x_max":1287,"ha":1433,"o":"m 530 0 q 379 31 450 0 q 254 115 308 62 q 170 239 201 168 q 140 391 140 311 l 140 961 l 289 961 l 289 391 q 307 298 289 343 q 359 221 326 254 q 435 168 391 187 q 528 149 479 149 l 1138 149 l 1138 961 l 1287 961 l 1287 0 l 530 0 "},"1":{"x_min":79.65625,"x_max":435,"ha":586,"o":"m 288 0 l 288 772 q 267 799 282 787 q 235 814 251 811 l 79 814 l 79 964 l 239 964 q 312 948 276 964 q 374 905 347 932 q 418 845 401 879 q 435 779 435 812 l 435 0 l 288 0 "},"›":{"x_min":0,"x_max":0,"ha":0},"˜":{"x_min":158,"x_max":885,"ha":921,"o":"m 742 962 q 682 969 712 962 q 620 994 651 977 l 622 994 q 485 1063 553 1029 q 349 1132 417 1098 q 324 1141 335 1138 q 306 1144 314 1144 q 300 1141 303 1144 q 298 1122 298 1138 l 298 982 l 158 982 l 158 1123 q 168 1194 158 1164 q 198 1246 178 1225 q 301 1285 239 1285 q 419 1252 359 1285 q 555 1184 486 1220 q 691 1114 625 1148 q 735 1101 719 1101 q 740 1105 737 1101 q 743 1124 743 1109 l 743 1265 l 885 1265 l 885 1123 q 841 1002 885 1045 l 843 1002 q 742 962 804 962 "},"k":{"x_min":138,"x_max":1391.9375,"ha":1510,"o":"m 1033 536 q 1148 483 1096 519 q 1239 397 1201 447 q 1299 286 1277 347 q 1321 158 1321 225 l 1321 0 l 1172 0 l 1172 161 q 1152 253 1172 209 q 1099 329 1133 297 q 1022 381 1066 362 q 929 400 979 400 l 287 400 l 287 0 l 138 0 l 138 961 l 287 961 l 287 550 l 847 550 q 1019 755 932 649 q 1189 961 1105 861 l 1391 961 l 1033 536 "},"ˇ":{"x_min":120.84375,"x_max":1001.46875,"ha":1089,"o":"m 955 1339 l 1001 1243 l 561 1035 l 120 1243 l 166 1339 l 561 1151 l 955 1339 "},"€":{"x_min":102.78125,"x_max":1376.5,"ha":1560,"o":"m 600 810 q 463 767 525 810 q 375 659 402 725 l 1344 659 l 1344 510 l 356 510 l 356 450 l 1344 450 l 1344 301 l 373 301 q 461 191 401 234 q 597 149 522 149 l 1376 149 l 1376 0 l 600 0 q 447 30 519 0 q 323 113 376 61 q 260 200 287 151 q 219 301 233 249 l 102 301 l 102 450 l 206 450 l 206 510 l 102 510 l 102 659 l 218 659 q 267 778 231 724 q 353 874 302 833 q 466 937 404 914 q 600 960 529 960 l 1376 960 l 1376 810 l 600 810 l 600 810 "},"<":{"x_min":0,"x_max":0,"ha":868},"t":{"x_min":139,"x_max":1307.53125,"ha":1449,"o":"m 1139 663 l 288 663 l 288 392 q 306 297 288 342 q 358 220 325 253 q 434 168 390 187 q 529 149 478 149 l 1307 149 l 1307 0 l 529 0 q 378 30 449 0 q 253 115 307 61 q 169 239 200 168 q 139 391 139 311 l 139 961 l 288 961 l 288 813 l 1139 813 l 1139 663 "},"W":{"x_min":136,"x_max":2145,"ha":2303,"o":"m 2145 963 l 2145 396 q 2113 241 2145 314 q 2026 114 2081 168 q 1899 27 1972 59 q 1743 -4 1826 -4 l 1464 -4 q 1309 27 1380 -4 q 1182 112 1237 58 q 1161 135 1171 125 q 1140 159 1151 146 q 1121 136 1132 148 q 1098 112 1109 125 q 972 27 1044 58 q 816 -4 900 -4 l 536 -4 q 379 27 452 -4 q 252 114 306 59 q 167 241 198 168 q 136 396 136 314 l 136 963 l 289 963 l 289 393 q 309 299 289 343 q 362 221 329 254 q 441 168 395 187 q 536 149 486 149 l 816 149 q 914 168 869 149 q 991 221 958 187 q 1044 299 1025 254 q 1064 396 1064 344 l 1064 963 l 1217 963 l 1217 396 q 1236 299 1217 344 q 1289 221 1255 254 q 1367 168 1322 187 q 1464 149 1412 149 l 1746 149 q 1842 168 1797 149 q 1919 221 1886 187 q 1972 299 1953 254 q 1992 396 1992 344 l 1992 963 l 2145 963 "},"v":{"x_min":23.609375,"x_max":1536.234375,"ha":1628,"o":"m 736 0 l 23 961 l 209 961 l 775 193 q 1061 577 918 379 q 1347 961 1205 774 l 1536 961 l 815 0 l 736 0 "},">":{"x_min":0,"x_max":0,"ha":857},"s":{"x_min":74,"x_max":1298,"ha":1415,"o":"m 124 0 l 124 153 l 1020 153 q 1069 162 1046 153 q 1108 189 1092 172 q 1135 229 1125 207 q 1145 279 1145 252 q 1108 368 1145 331 q 1019 405 1072 405 l 353 405 q 245 426 296 405 q 156 486 194 448 q 96 575 118 524 q 74 684 74 625 q 95 793 74 742 q 155 882 117 844 q 244 942 193 920 q 353 965 295 965 l 1247 965 l 1247 814 l 353 814 q 265 777 299 814 q 227 688 231 740 q 266 595 231 633 q 353 558 302 558 l 1020 558 q 1127 535 1077 558 q 1216 476 1178 513 q 1275 387 1253 438 q 1298 280 1298 337 q 1276 170 1298 222 q 1217 81 1254 119 q 1129 22 1179 44 q 1020 0 1078 0 l 124 0 "},"B":{"x_min":136,"x_max":1382,"ha":1475,"o":"m 1287 495 q 1356 401 1331 455 q 1382 287 1382 348 q 1357 174 1382 227 q 1291 83 1333 122 q 1195 22 1250 44 q 1080 0 1140 0 l 136 0 l 136 962 l 1076 962 q 1161 951 1119 962 q 1241 921 1204 941 q 1307 871 1277 900 q 1355 802 1337 841 q 1382 692 1382 749 q 1357 584 1382 637 q 1287 495 1333 531 m 287 575 l 1082 575 q 1135 583 1108 575 q 1183 606 1161 591 q 1217 643 1204 622 q 1231 693 1231 665 q 1217 742 1231 720 q 1181 779 1203 763 q 1132 802 1160 794 q 1076 811 1104 811 l 287 811 l 287 575 m 1219 236 q 1231 286 1231 258 q 1219 337 1231 312 q 1186 381 1207 362 q 1139 410 1165 399 q 1083 422 1112 422 l 287 422 l 287 153 l 1083 153 q 1164 175 1126 153 q 1219 236 1203 198 "},"…":{"x_min":138,"x_max":955,"ha":1077,"o":"m 138 0 l 138 165 l 307 165 l 307 0 l 138 0 m 463 0 l 463 165 l 632 165 l 632 0 l 463 0 m 786 0 l 786 165 l 955 165 l 955 0 l 786 0 "},"?":{"x_min":139,"x_max":1299,"ha":1438,"o":"m 1150 726 q 1147 741 1150 730 q 1137 763 1145 752 q 1111 783 1129 774 q 1062 793 1093 793 l 375 793 q 326 783 343 793 q 300 763 308 774 q 290 740 292 751 q 288 723 288 729 l 288 583 l 139 583 l 139 723 q 167 844 139 799 q 234 910 195 888 q 311 937 273 931 q 368 943 348 943 l 1062 943 q 1113 938 1075 943 q 1193 911 1151 933 q 1267 846 1235 890 q 1299 723 1299 802 l 1299 621 q 1271 525 1299 559 q 1210 474 1243 491 q 1122 451 1171 455 l 750 451 q 705 440 721 451 q 681 416 689 430 q 672 391 673 403 q 671 373 671 378 l 671 221 l 522 221 l 522 373 q 552 501 522 455 q 622 568 583 547 q 699 595 662 590 q 751 600 737 600 l 1115 600 q 1131 605 1124 601 q 1144 614 1138 608 q 1150 631 1150 620 l 1150 726 m 522 -1 l 522 146 l 671 146 l 671 -1 l 522 -1 "},"H":{"x_min":139,"x_max":1308,"ha":1409,"o":"m 1308 963 l 1308 0 l 1154 0 l 1154 440 l 292 440 l 292 0 l 139 0 l 139 963 l 292 963 l 292 593 l 1154 593 l 1154 963 l 1308 963 "},"c":{"x_min":139,"x_max":1333.75,"ha":1436,"o":"m 257 116 q 170 244 201 172 q 139 399 139 316 l 139 563 q 170 718 139 645 q 257 845 202 791 q 384 930 311 899 q 540 962 457 962 l 1333 962 l 1333 811 l 540 811 q 444 791 489 811 q 365 738 398 772 q 312 658 332 704 q 292 563 292 613 l 292 400 q 311 305 292 350 q 364 225 330 259 q 442 172 397 191 q 537 153 486 153 l 1333 153 l 1333 0 l 540 0 q 384 31 457 0 q 257 116 311 62 "},"&":{"x_min":121,"x_max":1467.171875,"ha":1576,"o":"m 1467 564 l 1467 414 l 1338 414 l 1338 0 l 416 0 q 296 22 350 0 q 202 82 241 44 q 142 172 164 120 q 121 281 121 223 q 145 393 121 340 q 212 484 169 445 q 144 570 168 519 q 121 679 121 622 q 151 807 121 756 q 227 888 182 858 q 325 931 273 919 q 421 943 378 943 l 1331 943 l 1331 793 l 421 793 q 367 785 393 793 q 318 763 340 777 q 283 727 296 748 q 270 677 270 705 q 283 630 270 651 q 317 595 296 609 q 364 572 338 580 q 415 564 390 564 l 1467 564 m 1188 413 l 414 413 q 358 402 385 413 q 313 374 332 392 q 281 331 293 356 q 270 281 270 307 q 276 249 270 271 q 299 204 282 226 q 343 165 315 182 q 414 149 371 149 l 1188 149 l 1188 413 "},"˝":{"x_min":287.515625,"x_max":932.015625,"ha":1072,"o":"m 626 1255 l 362 993 l 287 1068 l 551 1331 l 626 1255 m 932 1255 l 668 993 l 593 1068 l 857 1331 l 932 1255 "},"I":{"x_min":122,"x_max":275,"ha":361,"o":"m 122 0 l 122 963 l 275 963 l 275 0 l 122 0 "},"•":{"x_min":142,"x_max":592,"ha":653,"o":"m 142 476 q 159 562 142 521 q 207 634 176 603 q 278 682 237 664 q 367 701 319 701 q 455 682 414 701 q 526 634 496 664 q 574 562 557 603 q 592 476 592 521 q 574 387 592 428 q 526 316 557 346 q 455 268 496 285 q 367 251 414 251 q 278 268 319 251 q 207 316 237 285 q 159 387 176 346 q 142 476 142 428 m 366 590 q 286 556 319 590 q 253 476 253 523 q 286 394 253 427 q 366 361 319 361 q 448 394 415 361 q 482 476 482 427 q 448 556 482 523 q 366 590 415 590 "},"ˉ":{"x_min":138.90625,"x_max":782,"ha":914,"o":"m 138 1163 l 782 1163 l 782 1057 l 138 1057 l 138 1163 "},"G":{"x_min":140,"x_max":1384,"ha":1488,"o":"m 538 0 q 384 31 456 0 q 258 116 312 62 q 171 243 203 170 q 140 399 140 316 l 140 563 q 171 717 140 645 q 256 844 202 789 q 382 930 310 898 q 538 962 454 962 l 1116 962 l 1116 811 l 538 811 q 443 791 488 811 q 364 738 397 772 q 311 661 331 705 q 291 566 291 616 l 291 400 q 310 305 291 350 q 363 225 329 259 q 441 172 396 191 q 535 153 485 153 l 983 153 q 1078 172 1033 153 q 1157 225 1123 191 q 1210 302 1190 258 q 1231 396 1231 347 l 1231 408 l 815 408 l 815 561 l 1384 561 l 1384 399 q 1352 245 1384 318 q 1267 118 1321 172 q 1140 31 1213 63 q 983 0 1067 0 l 538 0 "},"(":{"x_min":119,"x_max":484.296875,"ha":660,"o":"m 320 -79 q 217 -46 262 -79 q 148 33 173 -13 q 126 92 134 61 q 119 159 119 123 l 119 785 q 132 873 119 832 q 170 946 146 914 q 235 1003 196 982 q 320 1024 274 1024 l 484 1024 l 484 875 l 320 875 q 282 841 296 870 q 269 784 269 818 l 269 160 q 289 89 269 114 q 321 70 305 71 l 484 70 l 484 -79 l 320 -79 l 320 -79 "},"`":{"x_min":184.734375,"x_max":569.484375,"ha":724,"o":"m 290 1377 l 569 1098 l 465 993 l 184 1272 l 290 1377 "},"U":{"x_min":139,"x_max":1367,"ha":1481,"o":"m 257 116 q 170 244 201 172 q 139 400 139 316 l 139 963 l 292 963 l 292 400 q 311 305 292 350 q 364 225 330 259 q 441 172 397 191 q 537 153 486 153 l 966 153 q 1061 172 1016 153 q 1141 225 1107 191 q 1194 303 1175 258 q 1214 397 1214 347 l 1214 963 l 1367 963 l 1367 400 q 1335 244 1367 316 q 1248 116 1304 172 q 1122 31 1194 62 q 966 0 1050 0 l 539 0 q 383 31 455 0 q 257 116 311 62 "},"F":{"x_min":140,"x_max":1333.359375,"ha":1435,"o":"m 365 737 q 312 659 331 704 q 293 562 293 614 l 293 553 l 1275 553 l 1275 402 l 293 402 l 293 0 l 140 0 l 140 562 q 171 717 140 645 q 256 844 202 789 q 384 930 312 899 q 540 962 456 962 l 1333 962 l 1333 811 l 540 811 q 443 790 487 811 q 365 737 398 770 "},"r":{"x_min":137,"x_max":1213.84375,"ha":1236,"o":"m 137 0 l 137 568 q 167 720 137 648 q 251 844 198 791 q 374 928 304 897 q 527 960 445 960 l 1213 960 l 1213 810 l 527 810 q 433 791 477 810 q 357 739 390 772 q 305 662 324 705 q 286 568 286 618 l 286 0 l 137 0 "},":":{"x_min":139,"x_max":293,"ha":419,"o":"m 293 211 l 293 0 l 139 0 l 139 211 l 293 211 m 293 584 l 293 374 l 139 374 l 139 584 l 293 584 "},"x":{"x_min":139,"x_max":1312,"ha":1413,"o":"m 1193 444 q 1280 316 1249 388 q 1312 161 1312 244 l 1312 0 l 1159 0 l 1159 160 q 1139 256 1159 210 q 1086 335 1120 301 q 1008 388 1053 369 q 913 408 964 408 l 537 408 q 443 388 487 408 q 364 335 398 369 q 311 258 330 302 q 292 163 292 213 l 292 0 l 139 0 l 139 161 q 170 316 139 244 q 257 444 201 388 q 280 465 268 455 q 303 484 291 476 q 255 524 275 505 l 257 524 q 170 652 201 580 q 139 808 139 725 l 139 963 l 292 963 l 292 808 q 311 713 292 758 q 364 634 330 668 q 442 580 397 599 q 537 561 486 561 l 922 561 q 1014 581 971 561 q 1089 634 1057 601 q 1140 712 1121 668 q 1159 805 1159 757 l 1159 963 l 1312 963 l 1312 808 q 1280 652 1312 725 q 1193 524 1249 580 q 1170 503 1181 513 q 1146 483 1159 492 q 1172 464 1161 473 q 1193 445 1182 455 l 1193 444 "},"*":{"x_min":80.265625,"x_max":582.734375,"ha":665,"o":"m 582 724 l 427 724 l 535 614 l 479 557 l 370 668 l 370 514 l 290 514 l 290 669 l 180 561 l 123 616 l 233 727 l 80 727 l 80 807 l 235 807 l 126 916 l 183 973 l 294 864 l 294 1017 l 373 1017 l 373 861 l 482 971 l 539 914 l 428 803 l 582 803 l 582 724 "},"†":{"x_min":0,"x_max":0,"ha":715},"V":{"x_min":23.609375,"x_max":1536.234375,"ha":1628,"o":"m 736 0 l 23 961 l 209 961 l 775 193 q 1061 577 918 379 q 1347 961 1205 774 l 1536 961 l 815 0 l 736 0 "},"h":{"x_min":138,"x_max":1284,"ha":1413,"o":"m 1168 832 q 1253 707 1222 779 q 1284 555 1284 636 l 1284 0 l 1135 0 l 1135 555 q 1115 653 1135 608 q 1063 730 1096 697 q 986 780 1030 762 q 892 799 942 799 l 528 799 q 432 780 477 799 q 356 728 388 761 q 305 650 324 694 q 287 555 287 605 l 287 0 l 138 0 l 138 1156 l 287 1156 l 286 864 q 397 926 336 904 q 528 949 458 949 l 892 949 q 1044 917 972 949 q 1168 832 1115 886 "},"0":{"x_min":142,"x_max":1499,"ha":1670,"o":"m 532 0 q 380 30 451 0 q 256 114 310 61 q 172 238 203 168 q 142 390 142 309 l 142 554 q 172 706 142 634 q 256 830 203 777 q 380 914 310 883 q 532 946 451 946 l 1107 946 q 1259 914 1187 946 q 1384 830 1330 883 q 1468 706 1437 777 q 1499 554 1499 634 l 1499 390 q 1468 238 1499 309 q 1384 114 1437 168 q 1259 30 1330 61 q 1107 0 1187 0 l 532 0 m 291 390 q 310 296 291 340 q 362 220 329 253 q 438 168 395 187 q 532 149 482 149 l 1107 149 q 1201 168 1157 149 q 1278 220 1245 187 q 1330 296 1311 253 q 1350 390 1350 340 l 1350 554 q 1330 648 1350 604 q 1278 724 1311 691 q 1201 776 1245 757 q 1107 796 1157 796 l 532 796 q 438 776 482 796 q 362 724 395 757 q 310 648 329 691 q 291 554 291 604 l 291 390 "},".":{"x_min":137,"x_max":300,"ha":435,"o":"m 137 0 l 137 167 l 300 167 l 300 0 l 137 0 "},"”":{"x_min":123.625,"x_max":609.765625,"ha":682,"o":"m 123 700 l 216 1038 l 377 1038 l 286 700 l 123 700 m 355 700 l 447 1038 l 609 1038 l 516 700 l 355 700 "},"@":{"x_min":139,"x_max":1336,"ha":1530,"o":"m 356 75 q 272 92 312 75 q 204 138 233 109 q 156 209 173 169 q 139 293 139 248 l 139 712 q 156 797 139 758 q 204 868 173 837 q 273 914 233 897 q 357 932 312 932 l 1119 932 q 1202 914 1162 932 q 1272 866 1241 897 q 1319 797 1302 837 q 1336 712 1336 758 l 1336 470 q 1311 358 1336 408 q 1252 285 1288 316 q 1162 254 1215 254 q 1085 272 1120 254 q 1026 326 1050 291 q 985 471 985 387 l 985 528 q 961 583 985 560 q 935 599 950 593 q 905 606 921 606 l 538 606 q 508 599 522 606 q 483 583 494 593 q 461 528 461 561 l 461 477 q 483 422 461 444 q 508 406 494 412 q 538 400 522 400 l 985 400 l 985 258 l 539 258 q 454 275 494 258 q 383 323 414 292 q 336 392 352 352 q 321 477 321 433 l 321 527 q 383 682 321 619 q 454 729 414 712 q 539 746 494 746 l 905 746 q 990 729 950 746 q 1060 682 1030 712 q 1106 611 1089 651 q 1124 527 1124 572 l 1124 470 q 1132 425 1124 445 q 1160 393 1140 404 q 1161 394 1158 394 q 1165 395 1164 394 q 1196 472 1193 420 l 1196 712 q 1173 766 1196 744 q 1119 790 1150 790 l 356 790 q 302 766 326 790 q 285 741 291 755 q 279 712 279 727 l 279 292 q 302 238 279 262 q 327 221 313 227 q 356 215 341 215 l 1326 215 l 1326 75 l 356 75 "},"f":{"x_min":140,"x_max":1333.359375,"ha":1435,"o":"m 365 737 q 312 659 331 704 q 293 562 293 614 l 293 553 l 1275 553 l 1275 402 l 293 402 l 293 0 l 140 0 l 140 562 q 171 717 140 645 q 256 844 202 789 q 384 930 312 899 q 540 962 456 962 l 1333 962 l 1333 811 l 540 811 q 443 790 487 811 q 365 737 398 770 "},";":{"x_min":89.671875,"x_max":323,"ha":447,"o":"m 154 373 l 154 540 l 323 540 l 323 373 l 154 373 m 89 -147 l 174 166 l 311 166 l 225 -147 l 89 -147 "},"“":{"x_min":123.625,"x_max":609.765625,"ha":693,"o":"m 447 711 l 355 1049 l 516 1049 l 609 711 l 447 711 m 216 711 l 123 1049 l 286 1049 l 377 711 l 216 711 "},"i":{"x_min":122,"x_max":275,"ha":368,"o":"m 122 0 l 122 963 l 275 963 l 275 0 l 122 0 "},"6":{"x_min":139,"x_max":1440,"ha":1589,"o":"m 139 773 q 153 831 141 801 q 190 888 165 861 q 271 945 226 929 q 375 961 316 961 l 1216 961 q 1285 950 1249 961 q 1355 917 1321 940 q 1440 741 1440 854 l 1440 667 l 1290 667 l 1290 741 q 1286 770 1290 756 q 1270 794 1283 783 q 1242 808 1258 805 q 1209 811 1226 811 l 375 811 q 317 799 335 811 q 298 783 306 792 q 288 766 290 774 l 288 574 q 305 577 297 576 q 317 579 312 579 l 1262 579 q 1294 574 1266 579 q 1354 550 1322 569 q 1413 495 1387 531 q 1440 395 1440 458 l 1440 213 q 1419 118 1440 163 q 1359 44 1398 73 q 1287 9 1326 19 q 1208 0 1248 0 l 375 0 q 254 23 301 0 q 182 79 208 47 q 148 144 157 111 q 139 197 139 177 l 139 773 m 288 201 q 324 164 299 179 q 376 149 349 149 l 1233 149 q 1274 165 1259 149 q 1290 204 1290 182 l 1290 396 q 1278 423 1290 419 q 1262 428 1266 428 l 311 428 q 298 423 308 428 q 288 396 288 419 l 288 201 "},"A":{"x_min":139,"x_max":1382,"ha":1488,"o":"m 1263 845 q 1350 717 1318 789 q 1382 563 1382 645 l 1382 0 l 1229 0 l 1229 418 l 290 418 l 290 0 l 139 0 l 139 563 q 170 719 139 646 q 257 845 202 791 q 383 930 311 899 q 537 962 455 962 l 982 962 q 1136 930 1063 962 q 1263 845 1208 899 m 534 811 q 442 791 485 811 q 365 739 398 772 q 311 663 331 706 q 290 571 291 619 l 1229 571 q 1207 663 1227 619 q 1153 739 1187 706 q 1076 791 1120 772 q 981 811 1031 811 l 534 811 "},"‘":{"x_min":119.453125,"x_max":373.640625,"ha":447,"o":"m 211 614 l 119 952 l 280 952 l 373 614 l 211 614 "},"n":{"x_min":135,"x_max":1281,"ha":1413,"o":"m 890 961 q 1042 929 971 961 q 1166 845 1112 898 q 1250 720 1219 792 q 1281 567 1281 648 l 1281 0 l 1132 0 l 1132 567 q 1113 661 1132 617 q 1061 738 1094 705 q 985 791 1029 772 q 893 811 941 811 l 284 811 l 284 0 l 135 0 l 135 961 l 890 961 "},"O":{"x_min":143,"x_max":1618,"ha":1733,"o":"m 543 0 q 386 31 459 0 q 259 116 313 62 q 174 243 205 170 q 143 399 143 316 l 143 563 q 174 718 143 645 q 259 845 205 791 q 386 930 313 899 q 543 962 459 962 l 1218 962 q 1374 930 1301 962 q 1501 845 1447 899 q 1586 718 1555 791 q 1618 563 1618 645 l 1618 399 q 1586 243 1618 316 q 1501 116 1555 170 q 1374 31 1447 62 q 1218 0 1301 0 l 543 0 m 296 400 q 315 303 296 348 q 368 225 334 258 q 446 172 401 191 q 543 153 491 153 l 1218 153 q 1314 172 1269 153 q 1394 225 1360 191 q 1447 303 1428 258 q 1467 400 1467 348 l 1467 563 q 1447 658 1467 613 q 1394 738 1428 704 q 1314 791 1360 772 q 1218 811 1269 811 l 543 811 q 446 791 491 811 q 368 738 401 772 q 315 658 334 704 q 296 563 296 613 l 296 400 "},"3":{"x_min":138,"x_max":1439,"ha":1586,"o":"m 1439 551 q 1429 504 1436 519 q 1408 473 1422 489 q 1433 429 1427 453 q 1439 379 1439 405 l 1439 186 q 1424 127 1436 157 q 1387 70 1412 98 q 1305 15 1351 31 q 1201 0 1259 0 l 378 0 q 345 2 365 0 q 303 9 325 4 q 260 23 282 15 q 221 43 237 32 q 138 218 138 107 l 138 293 l 287 293 l 287 218 l 287 211 q 310 162 287 176 q 364 149 334 149 l 1201 149 q 1261 160 1241 149 q 1279 174 1270 165 q 1289 194 1289 183 l 1289 377 q 1277 392 1289 389 q 1255 396 1266 396 l 311 396 l 311 547 l 1257 547 q 1277 551 1266 547 q 1289 563 1289 555 l 1289 758 q 1259 798 1282 783 q 1211 813 1237 813 l 364 813 q 334 809 350 813 q 307 797 317 806 q 291 776 295 789 q 287 743 287 763 l 287 669 l 138 669 l 138 749 q 158 844 138 799 q 215 917 178 889 q 293 951 249 940 q 378 963 337 963 l 1202 963 q 1289 947 1248 961 q 1362 907 1330 932 q 1414 849 1394 882 q 1439 776 1434 815 l 1439 551 l 1439 551 "},"]":{"x_min":114,"x_max":431,"ha":614,"o":"m 115 -96 l 115 53 l 282 53 l 282 890 l 114 890 l 114 1039 l 431 1039 l 431 -96 l 115 -96 "},"m":{"x_min":148,"x_max":1927,"ha":2095,"o":"m 1536 961 q 1687 929 1617 961 q 1811 845 1758 898 q 1895 720 1864 792 q 1927 567 1927 648 l 1927 0 l 1778 0 l 1778 567 q 1759 661 1778 617 q 1707 738 1740 705 q 1631 791 1675 772 q 1539 811 1587 811 l 1071 811 l 1071 0 l 921 0 l 921 811 l 297 811 l 297 0 l 148 0 l 148 961 l 1536 961 l 1536 961 "},"9":{"x_min":146,"x_max":1447,"ha":1615,"o":"m 1447 186 q 1432 127 1444 157 q 1395 70 1420 98 q 1313 15 1359 31 q 1209 0 1267 0 l 369 0 q 298 9 334 0 q 229 41 261 19 q 146 218 146 103 l 146 293 l 295 293 l 295 218 q 299 189 295 203 q 314 165 303 176 q 342 152 325 155 q 376 149 360 149 l 1209 149 q 1245 152 1231 149 q 1267 161 1259 155 q 1287 177 1278 168 q 1297 194 1295 186 l 1297 384 q 1285 382 1291 383 q 1267 382 1278 382 l 323 382 q 291 386 319 382 q 230 410 262 391 q 172 465 198 429 q 146 564 146 501 l 146 748 q 166 844 146 798 q 225 917 186 889 q 298 952 259 942 q 376 963 336 963 l 1209 963 q 1330 939 1284 963 q 1402 883 1376 915 q 1437 818 1428 851 q 1447 765 1447 785 l 1447 186 m 1297 760 q 1261 798 1285 783 q 1209 813 1237 813 l 354 813 q 312 797 329 813 q 295 757 295 781 l 295 564 q 307 536 295 540 q 324 532 319 532 l 1274 532 q 1287 536 1277 532 q 1297 564 1297 540 l 1297 760 "},"l":{"x_min":139,"x_max":1307.53125,"ha":1346,"o":"m 288 961 l 288 391 q 306 297 288 341 q 358 220 325 253 q 435 168 390 187 q 529 149 479 149 l 1307 149 l 1307 0 l 529 0 q 378 30 449 0 q 253 115 307 61 q 169 239 200 168 q 139 391 139 311 l 139 961 l 288 961 "},"8":{"x_min":133,"x_max":1435,"ha":1586,"o":"m 1435 559 q 1425 512 1432 527 q 1404 482 1418 497 q 1429 437 1423 461 q 1435 387 1435 414 l 1435 185 q 1420 126 1432 155 q 1383 69 1408 97 q 1301 14 1347 30 q 1197 -1 1255 -1 l 369 -1 q 265 14 310 -1 q 184 69 220 30 q 147 126 159 97 q 133 185 135 155 l 133 387 q 137 437 133 414 q 162 482 142 461 q 142 511 149 495 q 133 559 135 526 l 133 774 q 157 847 137 813 q 208 906 177 881 q 280 946 240 931 q 367 961 321 961 l 1198 961 q 1285 945 1244 959 q 1358 905 1326 930 q 1410 847 1390 880 q 1435 774 1430 813 l 1435 559 m 1257 159 q 1275 173 1266 164 q 1285 195 1283 182 l 1285 386 q 1273 400 1285 397 q 1251 404 1262 404 l 315 404 q 293 400 304 404 q 282 386 282 397 l 282 193 q 291 173 282 182 q 311 159 300 164 q 335 151 320 154 q 369 148 350 148 l 1197 148 q 1257 159 1237 148 m 1285 756 q 1255 796 1278 781 q 1207 811 1233 811 l 361 811 q 311 796 334 811 q 282 756 288 781 l 282 571 q 292 559 282 563 q 313 555 302 555 l 1255 555 q 1273 558 1264 555 q 1285 571 1283 561 l 1285 756 "},"p":{"x_min":143,"x_max":1412,"ha":1544,"o":"m 294 0 l 143 0 l 143 961 l 1106 961 q 1222 937 1167 961 q 1320 872 1278 913 q 1386 777 1361 831 q 1412 662 1412 723 q 1386 545 1412 600 q 1317 450 1360 491 q 1217 386 1274 409 q 1099 364 1160 364 l 294 364 l 294 0 m 1101 513 q 1162 524 1133 513 q 1212 556 1190 536 q 1247 603 1233 576 q 1263 662 1261 630 q 1247 720 1261 693 q 1211 767 1233 747 q 1160 799 1189 787 q 1098 811 1130 811 l 294 811 l 294 513 l 1101 513 "},"4":{"x_min":137.25,"x_max":1378,"ha":1536,"o":"m 1378 963 l 1378 1 l 1229 1 l 1229 332 l 212 332 q 169 343 188 332 q 142 375 151 355 q 137 389 138 383 q 137 404 137 395 q 159 458 137 436 l 651 963 l 860 963 l 391 481 l 1229 481 l 1229 963 l 1378 963 "},"‡":{"x_min":0,"x_max":0,"ha":715},"R":{"x_min":128,"x_max":1467.671875,"ha":1490,"o":"m 1325 443 q 1264 396 1298 415 q 1191 366 1229 378 q 1259 276 1224 323 q 1331 181 1295 229 q 1402 86 1367 133 q 1467 0 1437 40 l 1276 0 l 1011 353 l 279 353 l 279 0 l 128 0 l 128 962 l 1103 962 q 1278 912 1200 962 q 1382 804 1343 871 q 1421 658 1421 737 q 1396 539 1421 594 q 1325 442 1371 485 l 1325 443 m 279 506 l 1107 506 q 1169 517 1139 506 q 1221 550 1199 529 q 1256 598 1243 571 q 1270 658 1270 626 q 1256 718 1270 690 q 1219 766 1242 745 q 1166 799 1196 787 q 1103 811 1136 811 l 279 811 l 279 506 "},"o":{"x_min":143,"x_max":1618,"ha":1733,"o":"m 543 0 q 386 31 459 0 q 259 116 313 62 q 174 243 205 170 q 143 399 143 316 l 143 563 q 174 718 143 645 q 259 845 205 791 q 386 930 313 899 q 543 962 459 962 l 1218 962 q 1374 930 1301 962 q 1501 845 1447 899 q 1586 718 1555 791 q 1618 563 1618 645 l 1618 399 q 1586 243 1618 316 q 1501 116 1555 170 q 1374 31 1447 62 q 1218 0 1301 0 l 543 0 m 296 400 q 315 303 296 348 q 368 225 334 258 q 446 172 401 191 q 543 153 491 153 l 1218 153 q 1314 172 1269 153 q 1394 225 1360 191 q 1447 303 1428 258 q 1467 400 1467 348 l 1467 563 q 1447 658 1467 613 q 1394 738 1428 704 q 1314 791 1360 772 q 1218 811 1269 811 l 543 811 q 446 791 491 811 q 368 738 401 772 q 315 658 334 704 q 296 563 296 613 l 296 400 "},"5":{"x_min":138,"x_max":1439,"ha":1598,"o":"m 1439 191 q 1408 95 1434 137 q 1379 60 1397 77 q 1337 29 1362 43 q 1278 8 1312 16 q 1201 0 1244 0 l 378 0 q 360 1 378 0 q 315 9 342 2 q 257 29 287 15 q 199 68 226 43 q 155 131 172 93 q 138 224 138 169 l 138 344 l 287 344 l 287 224 q 300 183 287 199 q 332 161 314 168 q 378 149 352 151 l 1201 149 q 1230 151 1215 149 q 1259 160 1245 154 q 1280 174 1272 165 q 1289 196 1289 183 l 1289 416 q 1288 428 1289 421 q 1284 442 1287 435 q 1275 455 1282 450 q 1258 460 1269 460 l 328 460 q 232 494 274 466 q 167 565 196 518 q 138 697 138 612 l 138 963 l 1438 963 l 1438 813 l 287 813 l 287 697 q 293 649 287 667 q 307 623 299 632 q 323 612 316 614 q 334 610 331 610 l 1259 610 q 1348 586 1309 607 q 1410 528 1382 568 q 1439 416 1439 489 l 1439 191 "}}}
